<svg xmlns="http://www.w3.org/2000/svg" width="98.642" height="50.665" viewBox="0 0 98.642 50.665">
  <g id="Grupo_38" data-name="Grupo 38" transform="translate(-150.259 -58.633)">
    <text id="Itéu" transform="translate(197.901 94.512)" fill="#ffda7f" font-size="24" font-family="Roboto-Regular, Roboto"><tspan x="0" y="0">ITÉU</tspan></text>
    <path id="icons8_meal" d="M24.615,1A24.434,24.434,0,0,0,0,25.2,23.732,23.732,0,0,0,2.9,36.5H2.846c.41.744.885,1.487,1.372,2.193a3.13,3.13,0,0,0,.218.34l.026-.013a7.79,7.79,0,0,0,.513.706H9.308A23.9,23.9,0,0,1,6.949,36.9,20.6,20.6,0,0,1,3.282,25.2,21.124,21.124,0,0,1,24.615,4.227,21.124,21.124,0,0,1,45.949,25.2a20.6,20.6,0,0,1-3.667,11.7,22.811,22.811,0,0,1-2.372,2.824h4.346a7.8,7.8,0,0,0,.513-.706l.038.013c.077-.1.128-.227.205-.34A23.053,23.053,0,0,0,46.372,36.5h-.038a23.732,23.732,0,0,0,2.9-11.294A24.434,24.434,0,0,0,24.615,1ZM18.051,13.908c-2.577,0-4.641,1.689-6.026,3.769a13.435,13.435,0,0,0-2.179,7.26,8.319,8.319,0,0,0,2.423,6.189,7.852,7.852,0,0,0,4.141,1.992v9.832h3.282V33.117a7.852,7.852,0,0,0,4.141-1.992,8.319,8.319,0,0,0,2.423-6.189,13.435,13.435,0,0,0-2.179-7.26C22.692,15.6,20.628,13.908,18.051,13.908Zm11.487,0V26.815H32.82V13.908Zm6.564,0V28.429a1.606,1.606,0,0,1-1.641,1.613H28.474a10.964,10.964,0,0,1-1.962,3.013,4.961,4.961,0,0,0,1.385.214h1.641v9.681H32.82V33.269h1.641a4.9,4.9,0,0,0,4.923-4.84V13.908ZM18.051,17.134c1.051,0,2.269.794,3.269,2.294a10.572,10.572,0,0,1,1.654,5.508,5.056,5.056,0,0,1-1.41,3.87,5.009,5.009,0,0,1-3.513,1.235,5.009,5.009,0,0,1-3.513-1.235,5.056,5.056,0,0,1-1.41-3.87,10.572,10.572,0,0,1,1.654-5.508C15.782,17.929,17,17.134,18.051,17.134Z" transform="matrix(-0.035, 0.999, -0.999, -0.035, 194.9, 60.131)"/>
  </g>
</svg>
